<?xml version="1.0" encoding="UTF-8"?>
<svg version="1.1" xmlns="http://www.w3.org/2000/svg" width="512" height="512">
<path d="M0 0 C0.99868909 -0.00297112 1.99737819 -0.00594224 3.02633059 -0.0090034 C6.35908455 -0.01764635 9.69180239 -0.01919493 13.02456665 -0.02069092 C15.42015662 -0.02532233 17.81574585 -0.03034742 20.21133423 -0.03573608 C26.71186048 -0.04883371 33.21237985 -0.05533771 39.71291685 -0.05974674 C43.78023756 -0.06251761 47.84755591 -0.06675656 51.91487503 -0.07125092 C63.19913521 -0.08343966 74.48339352 -0.09373856 85.76766014 -0.09712601 C86.48888342 -0.09734557 87.2101067 -0.09756514 87.95318524 -0.09779136 C88.67603937 -0.09800964 89.39889351 -0.09822791 90.14365232 -0.09845281 C91.60818887 -0.09889626 93.07272542 -0.09934282 94.53726196 -0.09979248 C95.2637076 -0.10001391 95.99015323 -0.10023534 96.73861237 -0.10046348 C108.48858398 -0.10440477 120.23849332 -0.12184006 131.98844092 -0.145152 C144.08217627 -0.16895013 156.17588049 -0.18133175 168.26963961 -0.18249393 C175.04751456 -0.18340615 181.82530843 -0.18904286 188.60316086 -0.20731354 C194.98736375 -0.22388814 201.37141365 -0.2259044 207.75563049 -0.21717453 C210.08628883 -0.21640908 212.41695571 -0.22068117 214.74759293 -0.23063278 C258.07962913 -0.40465983 296.27158717 14.14096113 327.37026978 44.66778564 C335.82133285 53.25263113 342.72223089 62.77794547 348.81997681 73.14044189 C349.16657349 73.72519287 349.51317017 74.30994385 349.87026978 74.91241455 C362.01010239 95.68527045 368.98307225 119.22610484 368.9604187 143.32046509 C368.96487538 144.81849873 368.96487538 144.81849873 368.9694221 146.34679568 C368.97806505 149.67954963 368.97961363 153.01226748 368.98110962 156.34503174 C368.98574103 158.7406217 368.99076612 161.13621093 368.99615479 163.53179932 C369.00925242 170.03232557 369.01575642 176.53284494 369.02016544 183.03338194 C369.02293631 187.10070264 369.02717527 191.168021 369.03166962 195.23534012 C369.04385836 206.5196003 369.05415726 217.80385861 369.05754471 229.08812523 C369.05776427 229.80934851 369.05798384 230.53057179 369.05821006 231.27365033 C369.05842834 231.99650446 369.05864662 232.7193586 369.05887151 233.46411741 C369.05931496 234.92865396 369.05976152 236.3931905 369.06021118 237.85772705 C369.06043261 238.58417268 369.06065404 239.31061832 369.06088218 240.05907746 C369.06482347 251.80904907 369.08225876 263.55895841 369.1055707 275.308906 C369.12936883 287.40264135 369.14175045 299.49634558 369.14291263 311.5901047 C369.14382485 318.36797965 369.14946156 325.14577352 369.16773224 331.92362595 C369.18430684 338.30782883 369.1863231 344.69187874 369.17759323 351.07609558 C369.17682778 353.40675392 369.18109987 355.7374208 369.19105148 358.06805801 C369.36507853 401.40009422 354.81945758 439.59205226 324.29263306 470.69073486 C315.70778757 479.14179794 306.18247323 486.04269597 295.81997681 492.14044189 C295.23522583 492.48703857 294.65047485 492.83363525 294.04800415 493.19073486 C273.27514825 505.33056748 249.73431386 512.30353734 225.63995361 512.28088379 C224.64126452 512.28385491 223.64257542 512.28682603 222.61362302 512.28988719 C219.28086907 512.29853014 215.94815122 512.30007872 212.61538696 512.30157471 C210.219797 512.30620611 207.82420777 512.31123121 205.42861938 512.31661987 C198.92809313 512.3297175 192.42757376 512.3362215 185.92703676 512.34063053 C181.85971606 512.3434014 177.7923977 512.34764035 173.72507858 512.3521347 C162.4408184 512.36432345 151.15656009 512.37462235 139.87229347 512.3780098 C138.79045855 512.37833915 138.79045855 512.37833915 137.68676838 512.37867515 C136.96391424 512.37889343 136.2410601 512.3791117 135.49630129 512.3793366 C134.03176474 512.37978005 132.5672282 512.38022661 131.10269165 512.38067627 C130.37624602 512.3808977 129.64980038 512.38111913 128.90134124 512.38134727 C117.15136963 512.38528855 105.40146029 512.40272385 93.6515127 512.42603579 C81.55777735 512.44983392 69.46407312 512.46221554 57.370314 512.46337771 C50.59243905 512.46428994 43.81464518 512.46992664 37.03679276 512.48819733 C30.65258987 512.50477193 24.26853996 512.50678819 17.88432312 512.49805832 C15.55366478 512.49729287 13.2229979 512.50156496 10.89236069 512.51151657 C-32.43967552 512.68554362 -70.63163355 498.13992266 -101.73031616 467.61309814 C-110.18137924 459.02825266 -117.08227727 449.50293832 -123.18002319 439.14044189 C-123.52661987 438.55569092 -123.87321655 437.97093994 -124.23031616 437.36846924 C-139.15366328 411.83265263 -143.96888288 384.22270078 -143.82699585 354.93341064 C-143.83379502 352.5269607 -143.84271086 350.12051597 -143.85354614 347.71408081 C-143.87607264 341.2594098 -143.86761464 334.80514453 -143.85165071 328.35046768 C-143.84267249 324.30057544 -143.84447118 320.25073325 -143.84910202 316.20083618 C-143.84986819 315.52315191 -143.85063435 314.84546765 -143.85142373 314.14724749 C-143.85302277 312.7694531 -143.85464384 311.39165874 -143.85628669 310.0138644 C-143.87045789 297.17115175 -143.8542884 284.32861914 -143.82728486 271.48593605 C-143.80495393 260.5272569 -143.80883651 249.56884283 -143.83187866 238.61016846 C-143.85879081 225.80542442 -143.86908541 213.00083715 -143.85381734 200.19606876 C-143.85222502 198.82406174 -143.85065316 197.45205468 -143.84910202 196.08004761 C-143.84833064 195.40544076 -143.84755927 194.73083391 -143.84676451 194.03578442 C-143.84249339 189.33985864 -143.8498857 184.64406472 -143.86149979 179.94815063 C-143.87611257 173.59803788 -143.86562045 167.2484178 -143.8370285 160.89835739 C-143.83050645 158.58998806 -143.83215941 156.2815761 -143.84334183 153.97322464 C-144.02984188 111.50758545 -129.37532516 73.193066 -99.75082397 42.66778564 C-73.70742027 16.77431011 -36.88675524 -0.03468097 0 0 Z " fill="#1770FE" transform="translate(143.18002319335938,-0.14044189453125)"/>
<path d="M0 0 C3.54383986 1.5113164 5.82150702 3.57238322 8.53401184 6.28677368 C9.43812302 7.18669037 10.34223419 8.08660706 11.27374268 9.01379395 C12.26828519 10.01381984 13.26272764 11.01394527 14.25708008 12.01416016 C15.30991648 13.06592335 16.36318577 14.11725337 17.41685486 15.16818237 C20.27696618 18.02344584 23.13078617 20.88492257 25.98339677 23.74767733 C28.97438506 26.74745821 31.97065339 29.74195669 34.9662323 32.7371521 C40.00084284 37.77269946 45.03156554 42.81210455 50.05981445 47.85400391 C55.85950071 53.66937744 61.66435801 59.47954686 67.4722603 65.2867142 C73.66742857 71.48120455 79.85877193 77.6795072 86.04901671 83.87891722 C87.82581988 85.6578437 89.60332527 87.43606589 91.38099098 89.2141304 C94.18637652 92.0205276 96.98917265 94.82948692 99.79006386 97.64036942 C100.81347151 98.66667511 101.83770082 99.69216228 102.86285019 100.71672821 C107.27245621 105.12477544 111.64384785 109.50956674 115.67536926 114.26908875 C117.91407519 116.89360196 120.2048539 119.07021071 122.90963745 121.21037292 C128.83616229 126.01555657 133.94060136 130.55691377 135.33404541 138.33950806 C135.96659691 144.64192541 135.7706435 150.91755952 135.5703125 157.23828125 C135.54988817 159.57264194 135.53575541 161.90706521 135.52755737 164.24150085 C135.48755345 170.35736271 135.35515369 176.46790575 135.20483398 182.58190918 C135.0988099 187.53634647 135.05940705 192.49024522 135.02357674 197.44561481 C134.97884392 203.41848943 134.90360066 209.39083315 134.8203125 215.36328125 C134.80558018 216.47739191 134.79084785 217.59150257 134.7756691 218.73937416 C134.09304865 262.77926256 119.71521712 301.77901869 88 333 C79.75705351 340.80286591 70.76822292 347.25195059 61 353 C60.41524902 353.34659668 59.83049805 353.69319336 59.22802734 354.05029297 C41.97525327 364.13296 23.05425955 370.27945278 3.24163723 372.7122879 C1.08496119 372.98909531 -1.06349644 373.30284105 -3.21420288 373.62232971 C-18.08468561 375.69964615 -35.24104906 377.80854013 -48.16107559 368.77223778 C-57.62849578 361.34029026 -65.6386216 352.29842632 -73.5491333 343.27648926 C-77.03381615 339.35011203 -80.64185615 335.54076033 -84.2421875 331.72070312 C-88.90132926 326.76086572 -93.51546676 321.76876949 -98.0552578 316.69940186 C-102.42477825 311.82232096 -106.72315058 307.1462475 -111.7684021 302.95384216 C-117.80731981 297.66655808 -123.33783135 291.78142513 -129 286.09765625 C-130.44566272 284.65012566 -131.89154846 283.20281776 -133.33764648 281.75572205 C-137.12093719 277.96863523 -140.90121361 274.17855368 -144.68084717 270.38781738 C-148.54711645 266.51127116 -152.41626075 262.63759676 -156.28515625 258.76367188 C-163.85957012 251.178572 -171.43079924 243.59030181 -179 236 C-178.505 235.01 -178.505 235.01 -178 234 C-176.15535156 234.46019531 -176.15535156 234.46019531 -174.2734375 234.9296875 C-144.64768648 241.45817597 -104.71428162 241.72370839 -75 236 C-73.8462085 235.90871826 -72.69241699 235.81743652 -71.50366211 235.72338867 C-67.91360067 234.38560569 -67.91360067 234.38560569 -66.79623413 231.70031738 C-65.69164813 228.42543967 -64.8015718 225.14446956 -63.95703125 221.79296875 C-63.45341316 219.94569939 -63.45341316 219.94569939 -62.93962097 218.06111145 C-62.04512297 214.7798253 -61.18651652 211.49018185 -60.33551025 208.1973877 C-59.47618609 204.89507184 -58.58620466 201.6010849 -57.69726562 198.30664062 C-56.69192035 194.5778604 -55.69169532 190.84802171 -54.71308899 187.11210632 C-52.98990374 180.54379172 -51.11742574 174.04986684 -49.09355164 167.5683136 C-47.09023317 161.03138539 -45.24064787 154.44985943 -43.37095642 147.8737011 C-42.60046474 145.16370384 -41.82831466 142.45418352 -41.05578613 139.74476624 C-39.94521946 135.84930679 -38.83528711 131.95366746 -37.72583008 128.05789185 C-34.8119007 117.82750464 -31.8906164 107.59921644 -28.96875 97.37109375 C-28.52836647 95.82947476 -28.52836647 95.82947476 -28.0790863 94.25671196 C-22.67674797 75.34775101 -17.25786713 56.4436257 -11.796875 37.55151367 C-10.93441027 34.56765087 -10.07380262 31.58326255 -9.21484375 28.59838867 C-8.21642403 25.12934453 -7.21423979 21.66141172 -6.20890808 18.19436455 C-5.67408653 16.34677417 -5.14294856 14.49811874 -4.61193848 12.64942932 C-4.29462769 11.55863571 -3.97731689 10.4678421 -3.65039062 9.34399414 C-3.24173767 7.93036339 -3.24173767 7.93036339 -2.8248291 6.48817444 C-2.06127233 4.18483372 -1.14841482 2.13330909 0 0 Z " fill="#135ED6" transform="translate(378,139)"/>
<path d="M0 0 C3.65282234 0.01821917 7.3053889 0.02050921 10.95825195 0.02026367 C21.30166535 0.03562757 31.63343548 0.10432591 41.96411133 0.6550293 C43.06726433 0.71277275 43.06726433 0.71277275 44.19270325 0.77168274 C49.09822914 1.07560383 49.09822914 1.07560383 51.35864258 2.20581055 C52.17527353 5.10200171 52.85630767 7.9538362 53.48364258 10.89331055 C53.79906006 12.32332397 53.79906006 12.32332397 54.12084961 13.78222656 C56.58171373 25.03002775 58.91062412 36.30744927 61.26416016 47.578125 C63.46659752 58.10285788 65.7713821 68.59940591 68.17114258 79.08081055 C70.19410021 87.91893715 72.09791554 96.74048897 73.68286133 105.66674805 C74.45544751 109.71277744 75.39071076 113.70292964 76.35864258 117.70581055 C77.9851016 124.43451196 79.33007721 131.16640038 80.56567383 137.97924805 C81.99608897 145.75397505 83.70355982 153.47649005 85.35864258 161.20581055 C88.52532161 148.85168505 90.5746822 136.37107133 92.26855469 123.74023438 C92.84083832 119.53685377 93.4964744 115.38444208 94.35473633 111.22924805 C95.41743172 106.08139248 96.15861286 100.91372394 96.85864258 95.70581055 C97.67164274 89.65744674 98.63755035 83.69611627 99.87231445 77.71948242 C100.70674295 73.40659295 101.27358976 69.05834632 101.85864258 64.70581055 C102.67317905 58.64601725 103.6403323 52.67247534 104.87670898 46.68432617 C105.68102496 42.547844 106.2293574 38.38024099 106.79614258 34.20581055 C107.0584188 32.37497456 107.3214547 30.54424725 107.58520508 28.71362305 C108.09731282 25.12886886 108.56645113 21.54217445 109.00708008 17.94799805 C109.22756498 16.32548385 109.44887939 14.7030821 109.67114258 13.08081055 C109.75227295 12.32928711 109.83340332 11.57776367 109.91699219 10.8034668 C110.43840935 7.2032253 110.92839235 5.5405249 113.83911133 3.27612305 C123.10738335 0.45758083 133.07998894 1.04284303 142.67504883 1.0378418 C144.14135265 1.03462018 145.60765617 1.03125546 147.07395935 1.02775574 C150.13069402 1.02180491 153.18740058 1.01991182 156.24414062 1.02050781 C160.13964729 1.02060963 164.0349725 1.00691908 167.93043613 0.9897356 C170.95294508 0.97856425 173.97541069 0.97659012 176.99793816 0.97711754 C178.43349779 0.97594664 179.86905888 0.97157555 181.30459785 0.96378517 C196.22619814 0.89033217 196.22619814 0.89033217 203.35864258 3.20581055 C204.51592994 6.67767263 204.16622659 7.64071035 203.140625 11.0690918 C202.8430983 12.07991821 202.54557159 13.09074463 202.23902893 14.13220215 C201.90080612 15.24961792 201.56258331 16.36703369 201.21411133 17.51831055 C200.67142359 19.3522652 200.12874557 21.18622275 199.58637524 23.0202713 C198.99329306 25.02030275 198.39613251 27.01907774 197.7979126 29.01757812 C195.85403417 35.5142814 193.93764087 42.01911058 192.02054596 48.52375793 C191.55714847 50.09585525 191.09345442 51.66786518 190.62947845 53.23979187 C184.10390661 75.35378445 177.80058678 97.53152644 171.48364258 119.70581055 C170.91118121 121.71493023 170.3387021 123.72404485 169.76620483 125.7331543 C169.34703655 127.20419239 169.34703655 127.20419239 168.91940022 128.70494843 C167.82719424 132.53754411 166.73460805 136.37003138 165.64206123 140.20252991 C164.89525216 142.82349568 164.14943756 145.44474268 163.40379333 148.06604004 C160.80458932 157.19535832 158.16503742 166.31152601 155.47705078 175.4151001 C154.02597155 180.33335909 152.59355733 185.2568871 151.16723633 190.18237305 C150.89524918 191.12156586 150.62326202 192.06075867 150.34303284 193.02841187 C149.77745117 194.98233547 149.2120971 196.93632497 148.64697266 198.89038086 C148.07865819 200.85444956 147.50964503 202.81831622 146.93994141 204.78198242 C146.37448835 206.73103904 145.81007445 208.68039746 145.24673462 210.63006592 C144.698929 212.52200164 144.14738421 214.41285917 143.59188843 216.30255127 C142.37989014 220.46165038 141.23701921 224.59678293 140.34741211 228.83764648 C138.31604539 238.34739762 138.31604539 238.34739762 135.64672852 240.74072266 C133.49608364 241.63717696 131.67325252 241.97554506 129.35864258 242.20581055 C128.3616333 242.39216064 128.3616333 242.39216064 127.34448242 242.58227539 C125.07881754 242.9701401 122.83642394 243.19716213 120.54614258 243.39331055 C119.18501343 243.51174316 119.18501343 243.51174316 117.79638672 243.63256836 C44.2150363 249.02468255 44.2150363 249.02468255 23.48754883 238.7878418 C20.10119933 234.680728 19.41010783 230.01966805 18.29614258 224.89331055 C17.78390321 222.6965136 17.27088519 220.49989806 16.75708008 218.3034668 C16.39501465 216.71429443 16.39501465 216.71429443 16.02563477 215.09301758 C15.22991147 211.64857259 14.34627224 208.24272035 13.42114258 204.83081055 C13.11047852 203.67838867 12.79981445 202.5259668 12.47973633 201.33862305 C12.30812988 200.70601562 12.13652344 200.0734082 11.9597168 199.42163086 C10.62944851 194.5176849 9.30681985 189.61167355 7.98364258 184.70581055 C7.68151855 183.58682373 7.37939453 182.46783691 7.06811523 181.31494141 C5.10241266 174.01817385 3.1852285 166.71023665 1.29614258 159.39331055 C-0.57493321 152.15109562 -2.55180489 144.95042631 -4.64135742 137.76831055 C-7.43954729 128.14088872 -9.87696122 118.43871859 -12.27807617 108.70581055 C-13.78760804 102.58905084 -15.39079614 96.5022752 -17.0402832 90.42163086 C-18.37055149 85.5176849 -19.69318015 80.61167355 -21.01635742 75.70581055 C-21.31848145 74.58682373 -21.62060547 73.46783691 -21.93188477 72.31494141 C-23.89758754 65.01817311 -25.81471381 57.71022219 -27.70385742 50.39331055 C-29.63969477 42.90268648 -31.6831753 35.45151885 -33.82885742 28.01831055 C-37.27025506 16.05651761 -37.27025506 16.05651761 -38.57885742 11.14331055 C-38.81475586 10.26545898 -39.0506543 9.38760742 -39.29370117 8.4831543 C-39.66753569 6.03432818 -39.30264918 4.5604053 -38.64135742 2.20581055 C-25.80406867 -0.17746648 -13.01651932 -0.06701919 0 0 Z " fill="#FEFEFE" transform="translate(173.641357421875,133.794189453125)"/>
<path d="M0 0 C8.69115612 7.26716878 16.75221096 15.2068467 24.83739471 23.13351727 C27.42904341 25.67357989 30.03112001 28.20055773 32.66113281 30.70092773 C35.22473913 33.13874508 37.75738138 35.60512258 40.2714386 38.09397316 C41.68928655 39.48285718 43.13662349 40.84143192 44.58435059 42.19914246 C50.8109999 48.44263023 50.8109999 48.44263023 51.36105347 52.97509766 C51.12260919 55.7517837 50.66560213 58.29777993 50 61 C49.85820312 62.16789062 49.71640625 63.33578125 49.5703125 64.5390625 C48.54932967 71.61429442 47.37607583 78.64847227 46.10595703 85.68212891 C45.3125326 90.11149833 44.6135908 94.54124018 44 99 C43.28541905 104.19262159 42.43167762 109.34321914 41.5 114.5 C40.59116779 119.5324137 39.75252398 124.55668226 39.0625 129.625 C37.66578179 139.79597361 35.7946237 149.89316 34 160 C32.11506275 157.17259413 31.59344452 155.83012834 30.95703125 152.6171875 C30.77414551 151.71492432 30.59125977 150.81266113 30.40283203 149.88305664 C30.20802246 148.89039795 30.01321289 147.89773926 29.8125 146.875 C29.36932054 144.68342555 28.92526211 142.49202872 28.48046875 140.30078125 C28.24247559 139.12080566 28.00448242 137.94083008 27.75927734 136.72509766 C26.56294686 130.8557695 25.31534733 124.99748622 24.06723022 119.13900757 C23.61990359 117.03856961 23.17367551 114.93790108 22.7277832 112.8371582 C21.38048122 106.49006764 20.03088382 100.14346947 18.67845154 93.79747009 C17.95154799 90.38597351 17.22558217 86.97427785 16.5 83.5625 C16.35613861 82.88629608 16.21227722 82.21009216 16.0640564 81.51339722 C14.42141997 73.78637755 12.79887344 66.05566794 11.21484375 58.31640625 C11.06742233 57.59622818 10.92000092 56.87605011 10.76811218 56.13404846 C10.17863512 53.25250823 9.58951407 50.3708973 9.00216675 47.48892212 C7.4749229 40.00090775 5.91555664 32.52370667 4.2265625 25.0703125 C3.80612671 23.212854 3.80612671 23.212854 3.37719727 21.31787109 C2.85009005 19.00946689 2.31711228 16.70239199 1.77709961 14.39697266 C1.5425708 13.37394043 1.30804199 12.3509082 1.06640625 11.296875 C0.7561853 9.97187988 0.7561853 9.97187988 0.43969727 8.62011719 C-0.04912234 5.70728429 -0.07362509 2.94823976 0 0 Z " fill="#0F4397" transform="translate(226,138)"/>
</svg>
